<svg xmlns="http://www.w3.org/2000/svg" viewBox="0 -0.5 16 16" shape-rendering="crispEdges">
<metadata>Made with Pixels to Svg https://codepen.io/shshaw/pen/XbxvNj</metadata>
<path stroke="rgba(255,255,255,0.9607843137254902)" d="M5 0h1M1 3h1" />
<path stroke="#ffffff" d="M6 0h9M4 1h12M4 2h2M14 2h2M2 3h9M14 3h2M0 4h12M14 4h2M0 5h2M10 5h2M14 5h2M0 6h2M10 6h2M14 6h2M0 7h2M10 7h2M14 7h2M0 8h2M10 8h2M14 8h2M0 9h2M10 9h2M14 9h2M0 10h2M10 10h2M14 10h2M0 11h2M10 11h6M0 12h2M10 12h5M0 13h2M10 13h2M0 14h12M1 15h10" />
</svg>