<svg xmlns="http://www.w3.org/2000/svg" viewBox="0 -0.5 16 16" shape-rendering="crispEdges">
<metadata>Made with Pixels to Svg https://codepen.io/shshaw/pen/XbxvNj</metadata>
<path stroke="#609bd5" d="M6 0h4M2 1h5M9 1h5M1 2h2M5 2h1M10 2h1M13 2h2M0 3h2M4 3h2M10 3h2M14 3h2M0 4h1M4 4h1M11 4h1M15 4h1M0 5h2M14 5h2M1 6h2M13 6h2M2 7h1M4 7h1M11 7h1M13 7h1M2 8h12M2 9h1M13 9h1M2 10h12M0 12h1M3 12h1M5 12h1M7 12h1M9 12h3M13 12h3M0 13h4M5 13h3M9 13h1M13 13h1M15 13h1M0 14h1M3 14h1M7 14h1M9 14h1M11 14h1M13 14h1M15 14h1M0 15h1M3 15h1M5 15h3M9 15h3M13 15h3" />
</svg>